PathFileType	4	(X/Y/Z)	C:/Users/beibeiliu/ov580/test_trc/User3\sequence.30_training_dense_left.trc
DataRate	CameraRate	NumFrames	NumMarkers	Units	OrigDataRate	OrigDataStartFrame	OrigNumFrames
120	120	15	19	mm	120	90	239
Frame#	Time	ThumbCMC			ThumbMCP			ThumbIP			ThumbTip			IndexMCP			IndexPIP			IndexTip			MiddleMCP			MiddlePIP			MiddleTip			RingMCP			RingPIP			RingTip			PinkyMCP			PinkyPIP			PinkyTip			BackHand1			BackHand2			BackHand3	
		X0	Y0	Z0	X1	Y1	Z1	X2	Y2	Z2	X3	Y3	Z3	X4	Y4	Z4	X5	Y5	Z5	X6	Y6	Z6	X7	Y7	Z7	X8	Y8	Z8	X9	Y9	Z9	X10	Y10	Z10	X11	Y11	Z11	X12	Y12	Z12	X13	Y13	Z13	X14	Y14	Z14	X15	Y15	Z15	X16	Y16	Z16	X17	Y17	Z17	X18	Y18	Z18	
89	0.741667	-230.113	-9.92068	-10.7681	-225.916	4.27071	-34.4015	-217.659	17.2311	-60.5927	-211.538	29.3798	-76.0574	-174.935	-2.98821	-60.0151	-165.285	21.8211	-40.0266	-189.026	9.04851	-19.6389	-156.061	-11.7044	-54.8259	-152.196	13.4647	-34.1793	-177.347	-3.87235	-10.7968	-148.955	-23.5543	-40.8203	-140.192	0.199003	-22.3516	-167.079	-2.25982	-2.7816	-141.986	-39.4404	-26.0933	-132.594	-12.141	-19.6128	-151.076	-1.37	2.02723	-187.894	-61.853	-16.7671	-205.488	-67.2585	7.78193	-220.602	-42.3521	-22.2324	
90	0.75	-234.352	-7.95338	-9.07642	-225.715	6.32049	-33.1782	-217.727	22.804	-61.3808	-203.925	30.907	-76.5077	-176.55	-5.28164	-61.2129	-163.719	21.3152	-44.572	-187.01	7.22561	-20.4648	-161.869	-15.3802	-56.5054	-149.808	10.7569	-40.034	-177.637	-6.11525	-13.82	-152.804	-26.3048	-43.6239	-140.703	-0.535894	-26.2908	-168.565	-7.91498	-2.89587	-140.486	-36.6679	-29.1886	-135.455	-12.6237	-21.8754	-154.304	-7.52862	0.147233	-192.354	-58.1028	-19.1496	-203.991	-65.5413	6.27359	-224.322	-41.7762	-21.4132	
91	0.758333	-234.846	-7.95076	-9.49566	-229.304	10.3038	-33.2807	-216.996	25.0205	-56.4237	-200.949	32.7574	-70.1239	-177.204	-0.130656	-62.8512	-165.4	20.0733	-44.1545	-187.323	8.38754	-21.55	-165.439	-15.078	-58.9734	-153.344	11.3868	-38.0185	-178.104	-7.40668	-15.0599	-149.912	-23.5965	-46.5285	-140.406	-3.84702	-27.4757	-165.78	-9.68151	-5.11353	-146.741	-39.0675	-29.0128	-136.955	-13.7698	-18.0998	-159.613	-15.13	4.13692	-192.897	-59.7801	-20.9321	-206.921	-65.8487	3.79303	-221.595	-41.4904	-21.0687	
92	0.766667	-233.888	-7.74564	-7.75455	-225.899	9.32668	-29.3768	-212.406	24.6663	-56.4883	-193.281	30.8371	-68.052	-179.427	-5.73316	-61.1151	-166.39	19.9077	-43.3299	-185.503	8.26189	-21.6732	-161.723	-17.7317	-57.7146	-151.512	7.29215	-38.9347	-181.04	-8.49355	-15.7551	-150.188	-27.0097	-44.2218	-142.823	-4.07376	-25.1446	-167.741	-8.28948	-6.17647	-144.132	-38.5033	-29.2879	-139.437	-13.6888	-17.2373	-165.236	-19.4975	1.57997	-190.827	-62.0326	-17.9706	-210.204	-65.2703	8.12862	-221.596	-44.2114	-15.6107	
93	0.775	-232.161	-8.61923	-7.12908	-223.405	10.3138	-32.7411	-209.675	23.7364	-51.6473	-192.447	33.9692	-67.3192	-183.173	-5.58335	-63.5327	-168.258	19.8474	-46.2793	-191.218	6.25903	-22.1474	-162.751	-13.3836	-58.6172	-153.556	8.55627	-39.3264	-178.835	-10.4776	-14.9041	-149.58	-25.2479	-43.5226	-144.401	-4.91165	-25.9697	-173.423	-10.7649	-6.86304	-147.473	-36.0133	-30.2966	-144.099	-12.5003	-15.2132	-168.794	-24.096	1.57267	-194.866	-61.4139	-20.7646	-209.776	-63.4971	6.16366	-224.199	-44.4613	-17.7267	
94	0.783333	-230.532	-11.0877	-6.08452	-224.306	13.1357	-31.5243	-206.013	25.3961	-55.3797	-187.134	29.9847	-64.5131	-181.693	-3.28625	-63.3439	-167.856	16.5058	-44.3856	-190.068	5.34842	-23.1465	-164.781	-13.3025	-58.7149	-157.402	9.21107	-36.2699	-181.846	-13.8366	-13.3376	-152.628	-25.456	-42.7975	-148.043	-3.81334	-24.6262	-175.56	-16.2345	-3.31318	-148.245	-34.7964	-28.6381	-142.914	-15.8561	-10.4288	-170.806	-26.3127	5.43881	-195.062	-60.4124	-19.0713	-209.594	-66.9459	6.80655	-222.506	-45.8283	-16.9271	
95	0.791667	-230.354	-11.213	-6.98057	-223.647	12.0681	-29.1121	-204.034	21.5382	-53.4282	-185.714	31.7563	-64.5217	-180.885	-3.74291	-63.5507	-169.967	15.9548	-41.6297	-192.134	-1.29953	-21.8282	-163.101	-15.547	-56.3131	-157.223	8.26898	-37.3778	-182.607	-14.6193	-12.9413	-152.56	-25.047	-40.1558	-149.109	-5.60852	-21.4927	-174.902	-16.1865	-2.16268	-146.626	-37.4187	-26.0694	-150.097	-14.4303	-5.6068	-174.125	-27.9346	4.13043	-192.11	-64.3884	-21.6849	-208.925	-65.3781	7.60608	-226.717	-44.6682	-20.0403	
96	0.8	-230.59	-11.0316	-8.6289	-221.162	8.39242	-31.539	-204.966	24.5824	-56.6946	-184.065	27.8383	-66.1583	-184.745	-5.21569	-62.9762	-175.091	19.4373	-42.79	-194.408	-0.716338	-20.6561	-167.16	-17.0843	-54.0786	-159.108	6.39531	-31.7715	-184.332	-13.3177	-11.3083	-156.862	-22.1142	-41.1306	-154.567	-2.7929	-17.0322	-178.665	-18.2873	-0.896052	-148.803	-30.6911	-26.6271	-153.697	-14.1798	-5.2514	-172.986	-31.978	7.64428	-191.474	-64.2623	-20.8116	-206.696	-70.0184	5.85991	-227.084	-43.9552	-16.8555	
97	0.808333	-230.509	-11.8957	-7.36718	-222.634	9.08133	-30.6125	-206.238	20.7859	-51.698	-183.992	27.7368	-68.7753	-188.158	-6.24258	-63.921	-176.025	19.3705	-41.1716	-196.509	0.23728	-20.7029	-166.354	-16.5716	-52.3123	-163.129	7.6	-28.5921	-189.44	-14.4699	-10.8328	-157.558	-21.9219	-39.3761	-154.165	-5.12403	-14.3239	-180.247	-20.2772	1.57384	-149.732	-30.582	-25.1315	-156.95	-13.4192	-3.14205	-177.249	-33.7424	9.26715	-194.579	-63.1582	-22.5096	-207.44	-68.3167	10.4844	-223.491	-46.3061	-19.0105	
98	0.816667	-234.367	-10.4963	-7.78639	-225.702	11.5039	-30.7963	-206.787	21.7472	-56.4702	-186.875	25.2672	-67.2636	-186.664	-7.13713	-62.5351	-175.782	18.0452	-41.441	-194.346	2.23717	-20.037	-168.06	-14.7274	-52.2498	-163.466	8.4531	-31.5577	-190.649	-17.0037	-10.3606	-157.42	-22.2207	-37.4933	-154.523	-5.97183	-14.3225	-180.79	-18.6171	1.98127	-151.371	-30.8502	-24.3271	-157.61	-14.3191	-3.25544	-178.516	-34.824	10.3444	-193.072	-62.8955	-21.8822	-207.221	-68.5789	10.5712	-227.574	-44.3429	-15.3226	
99	0.825	-230.611	-12.7936	-9.70366	-224.467	7.89593	-33.3352	-211.13	21.4123	-55.2848	-191.116	27.0464	-68.4575	-185.073	-4.95676	-62.7452	-174.542	18.2364	-44.5715	-194.586	1.17963	-20.2118	-168.921	-15.4007	-52.7627	-165.711	8.33694	-28.4785	-192.248	-16.7641	-10.323	-156.768	-20.667	-36.7568	-158.69	-3.22053	-14.2415	-184.35	-18.2156	0.827508	-153.579	-32.3804	-26.3439	-155.332	-14.0957	-4.48794	-175.936	-31.278	8.44191	-193.041	-65.1635	-20.4764	-207.334	-67.7337	7.02533	-226.834	-48.5183	-15.1322	
100	0.833333	-232.261	-12.8557	-4.20995	-226.939	7.83172	-33.5767	-213.814	19.2724	-55.4066	-195.79	26.7458	-71.8621	-188.375	-5.89535	-63.3469	-175.312	17.3337	-46.2177	-194.498	-0.540391	-20.6615	-167.062	-11.496	-53.4344	-164.412	8.70829	-30.5572	-193.204	-14.8086	-11.3964	-159.941	-22.3774	-39.1083	-159.387	-2.3084	-16.0009	-185.392	-20.7303	1.00804	-149.529	-30.7751	-24.8028	-156.385	-12.9124	-5.23809	-176.516	-31.3777	9.43054	-192.417	-64.3084	-21.2486	-209.463	-66.4995	9.99183	-226.748	-44.9883	-16.4424	
101	0.841667	-232.963	-13.3042	-10.4899	-226.313	3.74253	-31.3006	-213.504	15.1769	-55.8707	-197.93	23.8041	-72.6401	-188.961	-6.35965	-65.0755	-177.779	17.9084	-49.4891	-195.156	-0.902814	-22.1233	-170.944	-15.4417	-55.4544	-165.063	7.49207	-30.8191	-187.894	-14.3744	-11.9926	-159.988	-20.8633	-40.743	-159.925	-3.41256	-13.5462	-184.551	-19.9016	-0.777611	-150.304	-30.115	-26.0707	-156.797	-12.0921	-7.54326	-176.877	-32.5625	9.14199	-193.573	-64.8518	-21.1887	-204.74	-67.4363	6.85631	-226.769	-47.3442	-20.5301	
102	0.85	-235.715	-14.7209	-10.9485	-230.972	2.97623	-36.2817	-218.457	14.869	-57.4949	-201.519	23.2845	-74.3751	-189.711	-5.27544	-69.0807	-179.36	18.6478	-52.438	-192.956	4.68877	-26.1427	-168.539	-15.654	-59.2565	-166.147	11.3042	-40.365	-187.514	-9.85894	-14.3342	-158.469	-22.9381	-41.1897	-160.74	-1.05835	-19.0562	-183.376	-19.3058	-2.88267	-153.439	-30.7064	-27.8206	-159.721	-10.4633	-8.58111	-176.75	-30.8024	8.15	-191.544	-64.9175	-21.3734	-207.393	-66.3915	5.19448	-224.521	-49.9071	-19.3699	
103	0.858333	-234.595	-17.2462	-9.0691	-234.351	-0.463975	-33.4726	-225.735	14.7437	-58.7351	-208.463	22.7322	-76.5476	-190.046	-10.7202	-70.397	-177.331	17.1181	-58.1701	-193.034	8.57135	-29.0671	-170.87	-18.6029	-63.5858	-161.798	9.25505	-47.1765	-182.273	-0.816173	-19.0237	-160.801	-22.6138	-46.0432	-157.799	0.417936	-26.5506	-182.263	-15.1702	-6.83427	-152.372	-29.0502	-29.5484	-158.849	-8.38558	-11.4551	-178.969	-25.2732	7.00457	-191.89	-63.7468	-20.9954	-207.026	-67.3143	5.59811	-224.461	-49.9914	-18.398	
